<?xml version="1.0" standalone="no"?><!DOCTYPE svg PUBLIC "-//W3C//DTD SVG 1.1//EN" "http://www.w3.org/Graphics/SVG/1.1/DTD/svg11.dtd"><svg t="1544001104881" class="icon" style="" viewBox="0 0 1024 1024" version="1.1" xmlns="http://www.w3.org/2000/svg" p-id="31592" xmlns:xlink="http://www.w3.org/1999/xlink" width="32" height="32"><defs><style type="text/css"></style></defs><path d="M197.640336 302.385958l558.888913 0 0 220.461087c24.477484 6.958482 48.873104 16.618493 69.830415 30.535457l0-320.826959c0-38.394449-31.435966-69.830415-69.830415-69.830415l-558.888913 0c-38.394449 0-69.830415 31.435966-69.830415 69.830415l0 419.146219c0 38.394449 31.435966 69.830415 69.830415 69.830415l209.573109 0c0-24.477484 14.408151-48.873104 28.40698-69.830415l-237.980089 0L197.640336 302.385958 197.640336 302.385958z" p-id="31593" fill="#ffffff"></path><path d="M439.386192 372.298238 407.213445 372.298238 267.470751 372.298238 267.470751 442.128653 407.213445 442.128653 439.386192 442.128653 686.61697 442.128653 686.61697 372.298238 439.386192 372.298238Z" p-id="31594" fill="#ffffff"></path><path d="M267.470751 511.959068l0 69.830415 139.742694 0 98.237395 0c41.914622-34.95614 104.377232-69.830415 181.166129-69.830415l-279.403524 0L267.470751 511.959068 267.470751 511.959068z" p-id="31595" fill="#ffffff"></path><path d="M686.61697 576.941058c-115.26521 0-209.573109 115.26521-209.573109 139.742694 0 24.39562 94.307899 139.66083 209.573109 139.66083 115.26521 0 209.573109-122.223692 209.573109-139.742694C896.190079 699.16475 801.88218 576.941058 686.61697 576.941058zM686.61697 811.124681c-52.181453 0-94.481861-42.301432-94.481861-94.481861s42.301432-94.481861 94.481861-94.481861c52.181453 0 94.481861 42.301432 94.481861 94.481861S738.797399 811.124681 686.61697 811.124681z" p-id="31596" fill="#ffffff"></path><path d="M686.61697 716.64282m-53.921074 0a52.693 52.693 0 1 0 107.842147 0 52.693 52.693 0 1 0-107.842147 0Z" p-id="31597"></path></svg>